HIERARCHY
ROOT Hips
{
  OFFSET 43.0842 91.1655 101.099
  CHANNELS 6 Xposition Yposition Zposition Zrotation Xrotation Yrotation
  JOINT LeftUpLeg
  {
    OFFSET 8.64259 1.95398 -2.38835
    CHANNELS 3 Zrotation Xrotation Yrotation
    JOINT LeftLeg
    {
      OFFSET 43.7702 0 0
      CHANNELS 3 Zrotation Xrotation Yrotation
      JOINT LeftFoot
      {
        OFFSET 40.6238 0 0
        CHANNELS 3 Zrotation Xrotation Yrotation
        JOINT LeftToeBase
        {
          OFFSET 12.7242 0 0
          CHANNELS 3 Zrotation Xrotation Yrotation
          End Site
          {
            OFFSET 0 0 0
          }
        }
      }
    }
  }
  JOINT RightUpLeg
  {
    OFFSET -8.2249 1.95398 -2.59336
    CHANNELS 3 Zrotation Xrotation Yrotation
    JOINT RightLeg
    {
      OFFSET 43.5653 0 0
      CHANNELS 3 Zrotation Xrotation Yrotation
      JOINT RightFoot
      {
        OFFSET 40.6238 0 0
        CHANNELS 3 Zrotation Xrotation Yrotation
        JOINT RightToeBase
        {
          OFFSET 12.7242 0 0
          CHANNELS 3 Zrotation Xrotation Yrotation
          End Site
          {
            OFFSET 0 0 0
          }
        }
      }
    }
  }
  JOINT Spine
  {
    OFFSET 0.165834 0.87714 6.61349
    CHANNELS 3 Zrotation Xrotation Yrotation
    JOINT Spine1
    {
      OFFSET 7.38963 1.71661e-005 0
      CHANNELS 3 Zrotation Xrotation Yrotation
      JOINT Spine2
      {
        OFFSET 11.9445 1.14441e-005 0
        CHANNELS 3 Zrotation Xrotation Yrotation
        JOINT Spine3
        {
          OFFSET 14.7254 4.19617e-005 0
          CHANNELS 3 Zrotation Xrotation Yrotation
          JOINT Spine4
          {
            OFFSET 10.9679 0 0
            CHANNELS 3 Zrotation Xrotation Yrotation
            JOINT RightShoulder
            {
              OFFSET 2.46616 -1.6653 3.69651
              CHANNELS 3 Zrotation Xrotation Yrotation
              JOINT RightArm
              {
                OFFSET 13.0012 0 0
                CHANNELS 3 Zrotation Xrotation Yrotation
                JOINT RightForeArm
                {
                  OFFSET 28.7848 1.52588e-005 0
                  CHANNELS 3 Zrotation Xrotation Yrotation
                  JOINT RightHand
                  {
                    OFFSET 26.5688 1.52588e-005 0
                    CHANNELS 3 Zrotation Xrotation Yrotation
                    End Site
                    {
                      OFFSET 0 0 0
                    }
                  }
                }
              }
            }
            JOINT LeftShoulder
            {
              OFFSET 2.38034 -1.29275 -3.7523
              CHANNELS 3 Zrotation Xrotation Yrotation
              JOINT LeftArm
              {
                OFFSET 16.3182 6.10351e-005 0
                CHANNELS 3 Zrotation Xrotation Yrotation
                JOINT LeftForeArm
                {
                  OFFSET 27.0901 0 0
                  CHANNELS 3 Zrotation Xrotation Yrotation
                  JOINT LeftHand
                  {
                    OFFSET 24.5451 1.52588e-005 0
                    CHANNELS 3 Zrotation Xrotation Yrotation
                    End Site
                    {
                      OFFSET 0 0 0
                    }
                  }
                }
              }
            }
            JOINT Neck
            {
              OFFSET 5.0226 -0.0266342 0
              CHANNELS 3 Zrotation Xrotation Yrotation
              JOINT Head
              {
                OFFSET 6.69364 2.86102e-005 0
                CHANNELS 3 Zrotation Xrotation Yrotation
                End Site
                {
                  OFFSET 0 0 0
                }
              }
            }
          }
        }
      }
    }
  }
}
MOTION
Frames:	14
Frame Time:	0.0333333
36.587 95.9663 197.953 95.9837 -64.2773 93.2949 -173.396 14.5912 91.6798 -34.335 20.0151 -3.03773 63.2649 4.06127 17.9184 35.4514 2.85283 10.63 176.664 10.81 88.6742 -18.8075 -0.215998 -1.51177 71.3371 -8.79251 1.02977 31.6554 -3.18736 4.90607 -0.67703 7.3567 -89.8371 12.1636 -1.26867 0.465856 0.493157 -1.24693 0.521244 -22.0469 -1.35001 0.0629701 -2.03423 -1.35001 0.0629689 92.7088 -54.251 -95.9164 11.2924 -11.5504 -19.5973 -11.4884 -4.04754 -91.6356 -7.2516 -0.0801229 10.4122 -111.818 -60.8273 52.4905 10.0368 15.365 -47.176 -8.22998 -44.6234 -50.7206 5.24348 -2.42783 17.3127 -5.84943 -2.23283 0.195651 -11.1601 -2.16373 -1.3894 
37.1509 96.3136 198.048 96.956 -65.4641 94.3148 -172.939 13.1469 91.8473 -32.7168 20.7139 -3.72883 63.5217 3.72965 18.7609 34.6047 1.44851 10.8345 176.831 9.9404 88.6526 -17.6742 -0.173391 -1.82652 70.3382 -8.8051 2.27498 31.8343 -3.09958 4.34228 -0.561264 7.36373 -89.8394 12.1491 -1.03972 0.435835 0.478465 -1.01951 0.481162 -22.06 -1.12262 0.103167 -2.04736 -1.12263 0.103168 92.5308 -53.9539 -96.2278 11.2387 -12.3692 -21.1859 -11.7844 -4.02203 -91.3387 -7.1531 -0.0120013 10.8518 -111.895 -60.9195 52.4342 7.54007 14.4552 -47.1257 -5.51052 -41.6612 -48.1127 4.95466 -2.44983 16.8746 -5.97431 -2.14182 -0.40403 -11.4545 -2.08278 -0.349229 
37.8625 96.5969 198.189 98.2936 -65.9276 95.0493 -172.789 11.3914 91.2397 -30.9811 18.9228 -4.04479 63.2664 3.42211 18.2709 34.5232 2.12027 9.52935 176.299 9.8241 87.776 -18.5223 -0.7482 -1.84039 70.1571 -8.45964 2.576 31.8278 -3.0223 4.10585 -0.587558 7.36904 -89.7365 12.1387 -1.0433 0.641298 0.468017 -1.01406 0.686581 -22.0701 -1.1878 0.29806 -2.05746 -1.1878 0.298055 92.2775 -54.5815 -96.4906 10.4543 -13.9375 -23.1021 -12.1779 -3.74968 -90.7588 -7.66858 -0.192347 11.0072 -111.407 -60.7554 52.977 4.41478 11.4428 -45.4371 -7.21186 -35.5544 -49.2028 5.99869 -1.90076 15.4181 -6.36903 -2.03349 -0.563199 -12.1152 -1.94436 -0.604087 
38.4748 96.8778 198.243 98.3651 -66.1965 95.5095 -172.901 10.472 91.372 -29.5432 18.5891 -4.06346 62.8405 2.23341 18.0366 35.2205 3.55181 8.83439 176.274 9.56432 87.8489 -18.1772 -1.05408 -1.80676 69.2928 -7.98109 2.51839 31.5601 -2.7785 3.76533 -0.575554 7.34291 -89.7677 12.191 -1.0341 0.578849 0.520294 -1.00761 0.623794 -22.0179 -1.16025 0.241267 -2.00527 -1.16024 0.241267 92.3602 -54.6272 -96.3619 11.2624 -13.7854 -24.0699 -12.6258 -4.05892 -90.9296 -7.1669 0.0106958 11.2218 -111.596 -60.785 52.7515 3.19654 11.3905 -44.3358 -8.41856 -33.2281 -51.9992 6.86609 -1.90867 17.1793 -6.60461 -2.18719 -0.68944 -12.216 -2.08392 -0.674077 
39.1067 97.0952 198.399 98.6614 -66.3536 96.2091 -173.016 9.60179 91.396 -28.5626 17.0794 -3.93297 63.0201 2.35064 16.8071 35.294 3.49656 9.12128 176.317 8.92854 88.0116 -17.4574 -0.897241 -1.85091 68.6787 -7.7225 2.66282 31.0981 -2.41179 3.36135 -0.553596 7.32073 -89.8246 12.2348 -1.01706 0.463926 0.564106 -0.995658 0.508253 -21.9741 -1.10947 0.136779 -1.96149 -1.10947 0.136778 92.3825 -54.4321 -96.363 12.7915 -12.5259 -23.8435 -12.2811 -4.51054 -92.2333 -7.09278 0.0749478 11.7121 -111.658 -60.8089 52.6842 1.90255 11.4176 -43.7885 -7.84353 -30.2307 -52.971 8.0662 -1.55995 17.3261 -6.80072 -2.45032 -0.71741 -12.4361 -2.34843 -0.636182 
39.8557 97.2326 198.521 99.2789 -65.9553 96.8381 -173.713 8.51758 90.8574 -27.7133 16.9875 -3.51037 63.1424 2.41091 16.5381 35.2528 2.93589 9.98358 176.075 8.15563 87.7118 -16.9063 -0.142286 -1.9566 68.4706 -7.7345 3.28638 31.1473 -2.44283 3.37882 -0.586588 7.33277 -89.8486 12.2108 -1.09418 0.424077 0.540266 -1.07446 0.471821 -21.9985 -1.17105 0.0755849 -1.98591 -1.17105 0.0755805 92.3576 -54.5125 -96.3857 13.9845 -10.331 -23.6308 -11.1856 -4.85072 -93.4003 -7.70599 -0.125507 12.1815 -111.236 -60.6342 53.1399 0.957616 11.6913 -43.7217 -8.57579 -28.1027 -53.9064 9.8843 -1.03556 17.6169 -6.97221 -2.90489 -0.754782 -12.4295 -2.7992 -0.678426 
40.452 97.361 198.62 100.175 -65.5259 98.1567 -174.018 7.49417 90.8812 -27.0619 16.7757 -3.01458 63.2947 2.82328 16.5498 35.0214 2.67065 9.85024 176.098 7.52842 87.9028 -17.0628 -0.123143 -2.07735 67.9622 -7.24396 3.55016 31.5162 -2.45321 2.81754 -0.591027 7.35658 -89.9179 12.1627 -1.13587 0.290075 0.492235 -1.122 0.33978 -22.0469 -1.17053 -0.0647621 -2.03427 -1.17053 -0.0647653 92.4197 -54.8976 -96.2289 14.5515 -7.54568 -23.9955 -10.9029 -5.13127 -93.617 -8.18192 -0.301928 12.2849 -111.434 -60.6264 52.8868 0.431062 12.6672 -43.5608 -8.85588 -27.2644 -54.6952 10.9587 -0.758702 18.119 -7.35747 -3.52857 -0.794509 -12.5778 -3.39986 -1.00814 
40.8628 97.4081 198.63 99.5631 -65.1214 97.8434 -174.145 7.43732 90.8929 -26.658 16.937 -2.94211 63.346 2.86093 16.7157 34.9316 2.6806 9.60668 175.945 7.52862 87.8283 -17.0746 -0.408274 -1.912 67.7169 -7.10729 3.47599 31.5778 -2.32991 2.33446 -0.637627 7.30246 -89.9817 12.2706 -1.25852 0.177969 0.600255 -1.24944 0.233187 -21.9397 -1.2538 -0.20855 -1.92707 -1.25381 -0.208556 92.3611 -55.248 -96.2541 14.3848 -4.94097 -25.2475 -9.52082 -4.80965 -92.0106 -8.10028 -0.299256 11.8566 -111.782 -60.7876 52.5188 0.00162619 13.3365 -43.1664 -9.23324 -26.5431 -55.2342 12.5471 -0.280109 18.3506 -8.01148 -4.06918 -0.891688 -12.6906 -3.93647 -1.07545 
41.3236 97.417 198.64 99.0394 -64.6859 97.5042 -174.273 7.45336 90.822 -26.5715 16.9632 -2.88737 63.276 2.62954 16.0375 35.3177 3.02331 10.0002 175.8 7.30505 87.7732 -16.4679 -0.00711667 -1.80505 67.5398 -7.01784 2.66795 31.6668 -2.57381 2.94963 -0.673069 7.24676 -90.019 12.3819 -1.34638 0.115314 0.711595 -1.34001 0.174466 -21.829 -1.31878 -0.294726 -1.81635 -1.3188 -0.294734 92.3563 -55.2434 -96.262 14.4312 -2.39982 -27.0809 -8.10492 -3.62201 -89.3399 -9.30826 -0.704237 12.8508 -111.394 -60.5886 52.9213 -0.649747 14.1765 -43.1448 -8.84517 -25.8367 -55.1402 13.8081 0.0727193 18.8319 -8.5342 -4.56867 -1.15442 -12.9369 -4.41147 -1.25611 
41.7811 97.453 198.619 99.2365 -64.3514 97.7079 -174.296 7.09305 90.6295 -26.349 17.0507 -2.91177 63.2459 2.64615 16.0226 35.2676 3.03522 9.85182 175.521 7.15495 87.4173 -16.7849 -0.315028 -1.74259 67.4977 -6.9391 3.02769 31.5797 -2.38562 2.5046 -0.680214 7.23082 -90.0346 12.4136 -1.36805 0.0871333 0.743361 -1.36289 0.147259 -21.7973 -1.33098 -0.328126 -1.78471 -1.33098 -0.328131 92.3628 -55.1984 -96.2601 14.1432 -0.00138029 -29.7299 -6.56719 -1.30984 -85.7709 -8.6169 -0.369091 13.9618 -111.085 -60.4194 53.2382 -0.605201 15.091 -43.4771 -8.93671 -25.6513 -54.8122 14.9405 0.491642 18.0516 -9.16747 -5.17456 -1.58618 -12.9727 -4.97489 -1.62226 
42.096 97.4686 198.555 98.9613 -63.9705 97.5387 -174.411 7.1304 90.4888 -26.2943 16.7216 -2.81307 63.2623 2.78777 15.8996 35.4775 3.46337 9.64814 175.378 7.12244 87.2372 -16.7607 -0.551012 -1.67365 67.3347 -6.71654 2.95461 31.5487 -2.27291 2.20442 -0.634489 7.20466 -90.0742 12.4653 -1.29594 0.000783095 0.795023 -1.29464 0.0578181 -21.745 -1.23626 -0.388798 -1.73234 -1.23625 -0.3888 92.9066 -54.538 -95.5791 14.2079 1.98485 -33.0262 -5.66837 2.27799 -81.6108 -6.88893 0.29947 13.5922 -111.004 -60.3191 53.2975 -0.00529072 16.6312 -44.2984 -8.68993 -26.135 -54.2324 15.1281 0.494092 18.857 -9.53775 -5.91743 -2.24358 -13.4124 -5.67914 -1.70589 
42.4204 97.465 198.52 99.1229 -63.8541 97.7987 -174.221 6.97517 90.5228 -26.3152 17.0816 -2.99428 63.4524 3.1278 16.0147 35.2281 3.00116 9.80981 175.329 6.84473 87.1269 -16.5274 -1.04546 -1.68563 67.0308 -6.48481 2.77501 31.7749 -2.24789 1.75473 -0.585427 7.1863 -90.126 12.5013 -1.22305 -0.110482 0.830948 -1.22672 -0.0565487 -21.7083 -1.13329 -0.472998 -1.69563 -1.13329 -0.473008 93.2242 -53.5813 -95.2677 13.4896 2.29499 -36.43 -4.88747 6.71491 -77.0318 -6.36221 0.502448 13.4995 -111.508 -60.4975 52.7376 0.79177 17.3306 -44.3225 -9.77883 -26.1474 -54.4172 15.7837 0.757272 17.9884 -10.264 -6.42868 -2.39344 -13.5458 -6.19011 -1.86667 
42.7135 97.5352 198.533 99.7817 -63.7778 98.4127 -174.14 6.45441 90.4334 -26.1107 17.1539 -3.01829 63.5094 3.37075 16.1243 35.0685 2.69796 9.92256 175.12 6.41507 86.947 -16.4027 -0.970121 -1.69395 66.8377 -6.27885 3.15246 31.6828 -2.26147 1.94928 -0.555133 7.18615 -90.1519 12.5013 -1.1752 -0.16783 0.83084 -1.18146 -0.115939 -21.7079 -1.07042 -0.513308 -1.69527 -1.07043 -0.51331 93.2676 -52.9574 -95.304 11.1903 0.858205 -40.389 -4.08058 12.9986 -71.4972 -6.08211 0.539524 12.6509 -111.052 -60.2526 53.2074 1.08168 17.7197 -43.6422 -11.401 -25.5795 -56.0274 16.9914 1.10826 18.4213 -10.9058 -6.71009 -2.53508 -13.819 -6.47438 -1.95597 
42.9024 97.5468 198.48 99.8783 -64.2038 98.4392 -174.085 6.39116 90.2508 -26.0245 16.4094 -3.14796 63.4682 3.22543 15.9642 35.2351 3.0516 9.74087 175.148 6.4358 86.7537 -16.2324 -1.67042 -1.77698 66.516 -6.01501 2.93442 31.9127 -2.44323 2.13611 -0.479786 7.1629 -90.1638 12.5475 -1.03114 -0.207507 0.876964 -1.03928 -0.161924 -21.6608 -0.921099 -0.50784 -1.64816 -0.921096 -0.507836 93.2207 -52.4946 -95.4496 7.63933 -1.09598 -44.7563 -6.58322 18.9148 -64.182 -3.2358 1.54961 11.7677 -110.555 -59.9807 53.7217 1.09365 18.1934 -43.4191 -11.7502 -25.2773 -56.525 16.7583 1.045 18.2392 -11.303 -6.89129 -2.95533 -13.8667 -6.69134 -1.47421 
